<?xml version="1.0" ?><svg height="24" id="svg8" version="1.1" viewBox="0 0 24 24" width="24" xmlns="http://www.w3.org/2000/svg" xmlns:cc="http://creativecommons.org/ns#" xmlns:dc="http://purl.org/dc/elements/1.1/" xmlns:rdf="http://www.w3.org/1999/02/22-rdf-syntax-ns#" xmlns:svg="http://www.w3.org/2000/svg"><defs id="defs2"><rect height="7.0346723" id="rect2504" width="7.9207187" x="-1.1008456" y="289.81766"/></defs><g id="g3092" style="display:inline;stroke-width:0.95854" transform="matrix(1.0432379,0,0,1.0432677,-0.51885576,-0.51921336)"><path d="m 85.552734,81.589844 v 12.65625 h -4.101562 v 8.164066 h 21.097658 v -8.164066 h -4.101564 v -8.636719 l -3.632813,-4.019531 z m 9.484375,1.736328 1.683594,1.861328 h -1.683594 z m -0.919921,5.357422 c 0,0.565398 -0.232792,1.073707 -0.597657,1.455078 1.066241,0.49867 1.863252,1.500041 2.046875,2.726562 l 0.07227,0.496094 -0.988281,0.148438 -0.07422,-0.494141 C 94.384722,91.73679 93.293257,90.794922 92,90.794922 c -1.292894,0 -2.384311,0.940343 -2.576172,2.21875 l -0.07422,0.49414 -0.988281,-0.148437 0.07227,-0.494141 c 0.18384,-1.224964 0.980347,-2.223366 2.044922,-2.722656 -0.365777,-0.381528 -0.595704,-0.892786 -0.595704,-1.458984 1e-6,-1.163723 0.953462,-2.117188 2.117186,-2.117188 1.163725,0 2.117187,0.953465 2.117187,2.117188 z m -11.666016,6.5625 h 19.097658 v 6.166016 H 82.451172 Z" id="rect2995" style="color:#000000;font-style:normal;font-variant:normal;font-weight:normal;font-stretch:normal;font-size:medium;line-height:normal;font-family:sans-serif;font-variant-ligatures:normal;font-variant-position:normal;font-variant-caps:normal;font-variant-numeric:normal;font-variant-alternates:normal;font-variant-east-asian:normal;font-feature-settings:normal;font-variation-settings:normal;text-indent:0;text-align:start;text-decoration:none;text-decoration-line:none;text-decoration-style:solid;text-decoration-color:#000000;letter-spacing:normal;word-spacing:normal;text-transform:none;writing-mode:lr-tb;direction:ltr;text-orientation:mixed;dominant-baseline:auto;baseline-shift:baseline;text-anchor:start;white-space:normal;shape-padding:0;shape-margin:0;inline-size:0;clip-rule:nonzero;display:inline;overflow:visible;visibility:visible;opacity:1;isolation:auto;mix-blend-mode:normal;color-interpolation:sRGB;color-interpolation-filters:linearRGB;solid-color:#000000;solid-opacity:1;vector-effect:none;fill:#000000;fill-opacity:1;fill-rule:nonzero;stroke:none;stroke-width:1;stroke-linecap:square;stroke-linejoin:miter;stroke-miterlimit:4;stroke-dasharray:none;stroke-dashoffset:0;stroke-opacity:1;paint-order:fill markers stroke;color-rendering:auto;image-rendering:auto;shape-rendering:auto;text-rendering:auto;enable-background:accumulate;stop-color:#000000;stop-opacity:1" transform="matrix(0.95855413,0,0,0.95852675,-76.18698,-76.184462)"/><path d="M 9.1523917,13.390655" id="path3017" style="fill:none;stroke:#000000;stroke-width:0.95854;stroke-linecap:square;stroke-miterlimit:4;stroke-dasharray:none;stroke-opacity:1;paint-order:fill markers stroke"/><path d="m 6.0780967,16.030399 c 0,0.822266 0,1.644531 0,2.466797 0.7330729,0 1.4661458,0 2.1992187,0 0,0.216797 0,0.433594 0,0.650391 -0.7330729,0 -1.4661458,0 -2.1992187,0 0,0.319661 0,0.639323 0,0.958984 1.0527344,0 2.1054688,0 3.1582032,0 0,-0.85612 0,-1.712239 0,-2.568359 -0.733724,0 -1.467448,0 -2.201172,0 0,-0.182943 0,-0.365885 0,-0.548828 0.733724,0 1.467448,0 2.201172,0 0,-0.319662 0,-0.639323 0,-0.958985 -1.0527344,0 -2.1054688,0 -3.1582032,0 z" id="path3032" style="color:#000000;font-style:normal;font-variant:normal;font-weight:normal;font-stretch:normal;font-size:medium;line-height:normal;font-family:sans-serif;font-variant-ligatures:normal;font-variant-position:normal;font-variant-caps:normal;font-variant-numeric:normal;font-variant-alternates:normal;font-variant-east-asian:normal;font-feature-settings:normal;font-variation-settings:normal;text-indent:0;text-align:start;text-decoration:none;text-decoration-line:none;text-decoration-style:solid;text-decoration-color:#000000;letter-spacing:normal;word-spacing:normal;text-transform:none;writing-mode:lr-tb;direction:ltr;text-orientation:mixed;dominant-baseline:auto;baseline-shift:baseline;text-anchor:start;white-space:normal;shape-padding:0;shape-margin:0;inline-size:0;clip-rule:nonzero;display:inline;overflow:visible;visibility:visible;isolation:auto;mix-blend-mode:normal;color-interpolation:sRGB;color-interpolation-filters:linearRGB;solid-color:#000000;solid-opacity:1;vector-effect:none;fill:#000000;fill-opacity:1;fill-rule:nonzero;stroke:none;stroke-width:0.95854;stroke-linecap:square;stroke-linejoin:miter;stroke-miterlimit:4;stroke-dasharray:none;stroke-dashoffset:0;stroke-opacity:1;color-rendering:auto;image-rendering:auto;shape-rendering:auto;text-rendering:auto;enable-background:accumulate;stop-color:#000000"/><path d="m 10.476048,16.026935 v 4.045661 h 3.190188 V 19.114065 H 11.434603 V 18.52809 h 1.430343 v -0.958526 h -1.430343 v -0.585975 h 2.231633 v -0.956654 z" id="path3058" style="color:#000000;font-style:normal;font-variant:normal;font-weight:normal;font-stretch:normal;font-size:medium;line-height:normal;font-family:sans-serif;font-variant-ligatures:normal;font-variant-position:normal;font-variant-caps:normal;font-variant-numeric:normal;font-variant-alternates:normal;font-variant-east-asian:normal;font-feature-settings:normal;font-variation-settings:normal;text-indent:0;text-align:start;text-decoration:none;text-decoration-line:none;text-decoration-style:solid;text-decoration-color:#000000;letter-spacing:normal;word-spacing:normal;text-transform:none;writing-mode:lr-tb;direction:ltr;text-orientation:mixed;dominant-baseline:auto;baseline-shift:baseline;text-anchor:start;white-space:normal;shape-padding:0;shape-margin:0;inline-size:0;clip-rule:nonzero;display:inline;overflow:visible;visibility:visible;isolation:auto;mix-blend-mode:normal;color-interpolation:sRGB;color-interpolation-filters:linearRGB;solid-color:#000000;solid-opacity:1;vector-effect:none;fill:#000000;fill-opacity:1;fill-rule:nonzero;stroke:none;stroke-width:0.95854;stroke-linecap:square;stroke-linejoin:miter;stroke-miterlimit:4;stroke-dasharray:none;stroke-dashoffset:0;stroke-opacity:1;color-rendering:auto;image-rendering:auto;shape-rendering:auto;text-rendering:auto;enable-background:accumulate;stop-color:#000000"/><path d="m 14.570284,16.063602 c 0,1.341146 0,2.682292 0,4.023438 1.117839,0 2.235677,0 3.353516,0 0,-1.341146 0,-2.682292 0,-4.023438 -1.117839,0 -2.235677,0 -3.353516,0 z m 0.958985,0.958985 c 0.478516,0 0.957031,0 1.435547,0 0,0.701823 0,1.403646 0,2.105469 -0.478516,0 -0.957031,0 -1.435547,0 0,-0.701823 0,-1.403646 0,-2.105469 z" id="rect3070" style="color:#000000;font-style:normal;font-variant:normal;font-weight:normal;font-stretch:normal;font-size:medium;line-height:normal;font-family:sans-serif;font-variant-ligatures:normal;font-variant-position:normal;font-variant-caps:normal;font-variant-numeric:normal;font-variant-alternates:normal;font-variant-east-asian:normal;font-feature-settings:normal;font-variation-settings:normal;text-indent:0;text-align:start;text-decoration:none;text-decoration-line:none;text-decoration-style:solid;text-decoration-color:#000000;letter-spacing:normal;word-spacing:normal;text-transform:none;writing-mode:lr-tb;direction:ltr;text-orientation:mixed;dominant-baseline:auto;baseline-shift:baseline;text-anchor:start;white-space:normal;shape-padding:0;shape-margin:0;inline-size:0;clip-rule:nonzero;display:inline;overflow:visible;visibility:visible;isolation:auto;mix-blend-mode:normal;color-interpolation:sRGB;color-interpolation-filters:linearRGB;solid-color:#000000;solid-opacity:1;vector-effect:none;fill:#000000;fill-opacity:1;fill-rule:nonzero;stroke:none;stroke-width:0.95854;stroke-linecap:square;stroke-linejoin:miter;stroke-miterlimit:4;stroke-dasharray:none;stroke-dashoffset:0;stroke-opacity:1;paint-order:fill markers stroke;color-rendering:auto;image-rendering:auto;shape-rendering:auto;text-rendering:auto;enable-background:accumulate;stop-color:#000000"/></g></svg>